# xmcd CD database file
#
# Track frame offsets:
#	150
#	13350
#	21196
#	32536
#	54434
#	64744
#	82642
#	95944
#	112195
#	128743
#	142756
#	160668
#	174211
#	188372
#	205986
#	210100
#	222716
#	241398
#	260769
#	276598
#	297944
#	310212
#	327433
#
# Disc length: 4719 seconds
#
# Revision: 0
# Processed by: cddbd v1.5.2PL0 Copyright (c) Steve Scherf et al.
# Submitted via: CDex 2.02
#
DISCID=4f126d17
DTITLE=Various Artist - Canadian Blues for Gordy Vol 2
DYEAR=1900
DGENRE=Blues
TTITLE0='Fore Day Train-Tim Williams
TTITLE1=The Buckdancer's Choice-Tim Williams
TTITLE2=Losin' My Race With The Reaper-Tim Williams
TTITLE3=If I Had Possession Over Judgement Day-Tim Williams
TTITLE4=Poor Boy-Tim Williams
TTITLE5=Please, Baby-Tim Williams
TTITLE6=Overqualified for the Blues-Brian Blain
TTITLE7=Sliding Delta-Big Dave McLean
TTITLE8=Cool Drink of Water-Doug Cox and Same Hurrie
TTITLE9=What a Way to Go-Harrison Kennedy
TTITLE10=Tethered Dogs-Harry Manx
TTITLE11=Foxy Lady -Harry Manx
TTITLE12=Grasshppers On My Pillow-Amos Garrett
TTITLE13=Roll With the Punches-Ray Bonneville
TTITLE14=Raven Bill-Ray Bonneville
TTITLE15=Crow Jane-Ken Hamm and Dave Goodman
TTITLE16=Some Afternoon Alone-Paul Reddick
TTITLE17=Six Doors Down-Rick Fines and Friends
TTITLE18=Go Back Old Devil-Colin Linden
TTITLE19=Nowhere to Go-Colin Linden
TTITLE20=Dance Hall Blues-Digging Roots
TTITLE21=Western Coast-David Gogo
TTITLE22=Halfway to Memphis-David Gogo
EXTD=
EXTT0=
EXTT1=
EXTT2=
EXTT3=
EXTT4=
EXTT5=
EXTT6=
EXTT7=
EXTT8=
EXTT9=
EXTT10=
EXTT11=
EXTT12=
EXTT13=
EXTT14=
EXTT15=
EXTT16=
EXTT17=
EXTT18=
EXTT19=
EXTT20=
EXTT21=
EXTT22=
PLAYORDER=
